<svg xmlns="http://www.w3.org/2000/svg" viewBox="0 0 23 23"><path d="M1 1h7v7h-7zM10 1h3v1h-1v1h-1v-1h-1zM15 1h7v7h-7zM2 2v5h5v-5zM9 2h1v1h-1zM13 2h1v2h-1zM16 2v5h5v-5zM3 3h3v3h-3zM10 3h1v2h1v1h-1v1h-1v-1h-1v-1h1zM17 3h3v3h-3zM12 4h1v1h-1zM13 5h1v4h-1v2h-1v2h1v1h3v-3h-1v-1h2v-1h1v2h1v1h-1v1h-1v1h1v1h1v2h-1v-1h-2v-1h-2v1h1v1h-2v-1h-1v-1h-1v-5h1v-2h1zM9 7h1v1h-1zM11 7h1v1h-1zM1 9h1v2h-1zM3 9h1v1h1v1h-2zM5 9h1v1h-1zM7 9h1v1h-1zM10 9h1v1h-1zM20 9h1v1h-1zM6 10h1v1h1v1h-1v1h1v1h-7v-2h1v1h4zM8 10h1v1h-1zM21 10h1v6h-2v-1h1v-1h-1v-1h1v-1h-1v-1h1zM2 11h1v1h-1zM9 11h1v1h-1zM13 11h2v1h-2zM18 13h1v1h-1zM9 14h1v1h-1zM1 15h7v7h-7zM2 16v5h5v-5zM10 16h2v1h-1v1h1v-1h1v1h1v4h-1v-2h-2v-1h-1v-1h-1v-1h1zM3 17h3v3h-3zM17 17h1v3h-2v-1h-1v-1h2zM20 17h1v2h-2v-1h1zM9 19h1v1h-1zM21 19h1v1h-1zM10 20h1v1h1v1h-3v-1h1zM20 20h1v1h1v1h-2zM16 21h1v1h-1z"/></svg>